<?xml version="1.0" encoding="UTF-8"?>
<svg enable-background="new 0 0 429.623 232.854" viewBox="0 0 429.623 232.854" xmlns="http://www.w3.org/2000/svg">
 <path d="m409.18 1.944c-3.889 4.644-4.824 10.332-2.664 17.208 2.125 6.84 11.629 11.304 15.301 23.796 3.6 12.456 11.123 30.636 6.191 50.364-5.221 19.656-19.512 48.6-36.504 66.852-17.244 18.035-35.748 29.053-65.088 41.256-29.484 12.24-71.676 28.477-109.66 31.068-38.16 2.268-83.664-6.156-116.64-16.957-33.012-11.015-63.216-30.851-79.236-47.699-15.912-16.992-12.168-36.973-15.552-52.848s-4.968-29.592-4.752-41.688c8.856-5.004 25.884-10.152 52.056-15.588 26.208-5.544 69.696-13.032 103.93-17.028 34.2-4.032 70.704-3.132 99.792-6.876 28.801-3.852 52.092-10.8 72.504-15.984 20.34-5.364 35.352-12.996 48.924-15.66 13.427-2.7 23.759-2.772 31.392-0.216z" fill="#abd148" fill-rule="evenodd"/>
 <path d="m406.8 3.456c-3.061 1.908-4.43 5.292-4.105 10.152 0.252 4.932 4.609 12.996 5.977 18.936 1.297 5.76 3.275 7.992 2.053 15.732-1.404 7.812-0.973 17.82-9.938 30.42-9.107 12.528-23.436 30.24-43.955 43.991-20.736 13.572-47.305 28.98-79.129 37.08-32.076 7.957-79.127 9.504-110.88 10.621-31.716 1.008-53.604 2.375-77.616-4.5-24.156-7.092-51.696-24.553-65.268-37.26-13.5-12.817-11.016-29.377-15.048-38.701-4.069-9.395-6.985-15.011-8.893-17.135 10.044-4.788 25.704-9.576 47.664-14.652 22.032-5.148 57.204-11.808 83.304-15.516 26.028-3.636 51.444-5.112 71.784-6.516 20.305-1.62 36.252-2.268 48.959-2.484-30.814 5.94-60.947 11.484-92.195 16.776-31.284 5.22-70.092 9.9-93.672 14.616-23.544 4.644-39.708 6.444-46.548 13.32-6.768 6.912-2.88 15.732 5.832 27.576 8.568 11.736 19.44 33.264 45.54 42.371 26.316 8.82 72.072 12.277 110.48 11.342 38.375-1.01 86.256-8.029 117.25-16.777 30.635-8.82 48.672-20.412 65.771-35.748 16.992-15.624 30.637-43.308 35.531-56.664 4.609-13.392-1.26-17.28-7.451-22.896-6.336-5.652-25.885-6.912-29.629-10.728-3.742-3.996 2.846-9.612 7.273-12.42 4.391-2.88 12.635-4.248 18.9-4.392 6.193-0.18 12.097 0.972 18.002 3.456z" fill="#e1efd1" fill-rule="evenodd"/>
 <path d="m102.78,65.628c-2.916,4.355-17.46,37.548-20.988,49.572-3.384,11.845-2.448,25.093.432,20.987 2.772-4.428 12.636-34.631 16.128-46.475 3.456-11.88 7.02-28.332 4.428-24.084z" fill="#e1efd1" fill-rule="evenodd"/>
 <path d="m163.98,69.12c-1.188-.54-4.536,14.94-4.5,27.288 .072,12.204 3.636,44.316 4.86,45.217 1.008.504 1.512-28.873 1.512-41.077-.108-12.168-.828-30.744-1.872-31.428z" fill="#e1efd1" fill-rule="evenodd"/>
 <path d="m217.3 108.72c-0.756 1.08 2.846 27.18 4.285 31.5 1.367 4.176 4.787-1.189 4.141-6.373-0.828-5.327-7.705-26.207-8.426-25.127z" fill="#e1efd1" fill-rule="evenodd"/>
 <path d="m231.984,50.94c-.684,2.988 6.947,41.364 12.744,55.836 5.76,14.185 20.34,32.075 21.24,29.376 .611-2.953-11.232-31.968-16.922-46.224-5.759-14.436-16.306-41.688-17.062-38.988z" fill="#e1efd1" fill-rule="evenodd"/>
 <path d="m273.023,54.9c-1.008.792 11.34,19.44 19.693,26.928 8.314,7.2 29.303,17.28 30.311,16.632 .828-.756-16.271-13.248-24.623-20.556-8.496-7.488-24.408-23.58-25.381-23.004z" fill="#e1efd1" fill-rule="evenodd"/>
 <path d="m326.447,41.328c2.988.252 18.109,7.776 26.316,14.94 8.1,7.128 24.912,28.008 22.104,27.792-3.059-.468-31.68-22.536-39.779-29.7-8.209-7.128-11.557-13.464-8.641-13.032z" fill="#e1efd1" fill-rule="evenodd"/>
 <path d="m20.016,159.191c.396,3.744 8.532,13.5 24.264,23.293 15.732,9.721 44.784,26.783 68.976,34.523 24.192,7.523 52.344,10.549 74.592,11.16 22.068.504 52.092-1.801 56.881-7.451 4.391-5.76-27.217-19.836-29.845-26.102-2.7-6.336 24.372-9 14.005-11.195-10.729-2.195-61.633-4.068-76.465-1.871-14.76,2.268-.576,14.146-11.196,14.939-10.836.504-42.264-10.549-52.2-11.195-9.864-.613 1.188,11.592-6.552,7.451-7.884-4.32-29.664-27-40.068-32.615-10.548-5.724-22.68-4.644-22.392-.937z" fill="#9ed231" fill-rule="evenodd"/>
 <path d="m360.107,157.645c-1.26-.469-4.428,1.367-4.645,2.016-.322.432 2.09.504 2.773,1.332 .611.828.143,3.492.971,3.816 .793.18 3.277-1.008 3.564-2.197 .109-1.403-1.475-4.356-2.663-4.967z" fill="#d1eca9" fill-rule="evenodd"/>
 <path d="m361.404,156.672c-1.369-.467-4.32,1.332-4.68,2.053-.396.467 2.16.396 2.807,1.295 .613.828.145,3.457.973,3.854 .791.18 3.275-1.01 3.564-2.197 .108-1.368-1.476-4.429-2.664-5.005z" fill="#86a338" fill-rule="evenodd"/>
 <path d="m395.676,100.728c-2.447-.9-8.279,2.664-8.893,3.888-.576,1.044 3.924.864 5.293,2.52 1.152,1.62.396,6.696 1.908,7.308 1.512.468 6.299-1.944 6.732-4.176 .18-2.376-2.663-8.604-5.04-9.54z" fill="#d1eca9" fill-rule="evenodd"/>
 <path d="m398.123,98.964c-2.447-.936-8.279,2.664-8.891,3.852-.613.936 4.031.9 5.328,2.52 1.15,1.62.432,6.696 1.871,7.308 1.477.468 6.373-1.944 6.768-4.176 .11-2.448-2.699-8.532-5.076-9.504z" fill="#86a338" fill-rule="evenodd"/>
 <path d="m316.512,173.053c-.576.828 4.717,6.66 6.553,7.199 1.727.324 4.607-3.455 3.635-4.68-1.188-1.224-9.577-3.312-10.188-2.519z" fill="#d1eca9" fill-rule="evenodd"/>
 <path d="m318.168,172.188c-.576.828 4.717,6.66 6.553,7.201 1.727.324 4.607-3.457 3.635-4.68-1.188-1.225-9.577-3.313-10.188-2.521z" fill="#86a338" fill-rule="evenodd"/>
 <path d="m351.287,132.947c-.791,1.045 6.156,8.496 8.354,9.145 2.123.361 5.975-4.355 4.607-5.939-1.549-1.622-12.168-4.214-12.961-3.206z" fill="#d1eca9" fill-rule="evenodd"/>
 <path d="m353.412,131.832c-.793.973 6.156,8.568 8.352,9.18 2.125.432 5.977-4.428 4.607-5.975-1.547-1.621-12.168-4.213-12.959-3.205z" fill="#86a338" fill-rule="evenodd"/>
 <path d="m227.447,204.121c-.936,1.367 7.957,11.268 10.98,12.059 2.809.613 7.885-5.795 6.084-7.848-1.943-2.123-16.056-5.473-17.064-4.211z" fill="#d1eca9" fill-rule="evenodd"/>
 <path d="m230.221,202.68c-.938,1.297 7.955,11.232 10.979,12.025 2.809.611 7.885-5.832 6.084-7.813-1.944-2.124-16.055-5.472-17.063-4.212z" fill="#86a338" fill-rule="evenodd"/>
 <path d="m25.56,145.621c-.648.936-.18,2.375 1.044,3.275 1.224.863 2.772.863 3.42-.072 .648-.9.216-2.377-1.044-3.24-1.224-.9-2.772-.863-3.42.037z" fill="#d1eca9" fill-rule="evenodd"/>
 <path d="m25.92,144.756c-.648.9-.18,2.377 1.044,3.24 1.26.9 2.772.863 3.456-.035 .648-.938.18-2.377-1.044-3.277-1.26-.901-2.772-.864-3.456.072z" fill="#86a338" fill-rule="evenodd"/>
 <path d="m160.272,184.859c-1.152,1.584-.36,4.178 1.836,5.725 2.196,1.584 4.896,1.549 6.048-.072s.36-4.211-1.836-5.76c-2.196-1.584-4.896-1.512-6.048.107z" fill="#d1eca9" fill-rule="evenodd"/>
 <path d="m160.92,183.275c-1.152,1.621-.324,4.213 1.872,5.762 2.16,1.584 4.86,1.512 6.048-.072 1.152-1.656.324-4.213-1.872-5.797-2.16-1.547-4.86-1.512-6.048.107z" fill="#86a338" fill-rule="evenodd"/>
 <path d="m58.788,163.584c-1.152,1.621-.324,4.213 1.872,5.76 2.16,1.584 4.86,1.549 6.048-.072 1.152-1.619.324-4.211-1.872-5.795-2.16-1.549-4.86-1.512-6.048.107z" fill="#d1eca9" fill-rule="evenodd"/>
 <path d="m59.472,162.037c-1.152,1.584-.36,4.176 1.836,5.76 2.196,1.547 4.896,1.512 6.048-.109s.36-4.176-1.836-5.76-4.896-1.512-6.048.109z" fill="#86a338" fill-rule="evenodd"/>
 <path d="m296.027,201.996c-.648.9-.215,2.377 1.045,3.24 1.223.9 2.771.863 3.42-.037 .648-.936.18-2.375-1.045-3.275-1.222-.863-2.771-.863-3.42.072z" fill="#d1eca9" fill-rule="evenodd"/>
 <path d="m296.389,201.096c-.648.9-.182,2.377 1.043,3.277 1.26.863 2.771.863 3.42-.072 .684-.9.217-2.377-1.043-3.24-1.225-.901-2.737-.866-3.42.035z" fill="#86a338" fill-rule="evenodd"/>
 <path d="m266.184,174.961c-.648.898-.18,2.375 1.045,3.238 1.223.9 2.771.865 3.42-.035 .646-.936.18-2.375-1.045-3.275s-2.772-.866-3.42.072z" fill="#d1eca9" fill-rule="evenodd"/>
 <path d="m266.543,174.061c-.646.9-.18,2.375 1.045,3.275 1.26.863 2.771.863 3.455-.072 .648-.9.182-2.375-1.08-3.24-1.223-.899-2.734-.864-3.42.037z" fill="#86a338" fill-rule="evenodd"/>
 <path d="m102.096,180.541c-.648.898-.216,2.375 1.044,3.275 1.224.863 2.772.863 3.42-.072 .648-.9.18-2.377-1.044-3.24-1.224-.9-2.772-.863-3.42.037z" fill="#d1eca9" fill-rule="evenodd"/>
 <path d="m102.456,179.676c-.648.9-.18,2.377 1.044,3.24 1.26.9 2.772.863 3.42-.035 .684-.938.216-2.377-1.044-3.277-1.224-.899-2.736-.864-3.42.072z" fill="#86a338" fill-rule="evenodd"/>
 <path d="m71.316,176.797c-.648.936-.18,2.375 1.044,3.275s2.772.863 3.42-.035c.648-.938.216-2.377-1.044-3.277-1.224-.901-2.772-.864-3.42.037z" fill="#d1eca9" fill-rule="evenodd"/>
 <path d="m71.676,175.932c-.648.9-.18,2.377 1.044,3.24 1.26.9 2.772.865 3.456-.035 .648-.938.18-2.377-1.08-3.277-1.224-.864-2.736-.864-3.42.072z" fill="#86a338" fill-rule="evenodd"/>
</svg>
